<svg xmlns="http://www.w3.org/2000/svg" viewBox="0 0 1600 900" role="img" aria-labelledby="t d"><title id="t">Balaji Square architectural reference</title><desc id="d">Premium architectural reference illustration of a contemporary urban residential development.</desc><defs><linearGradient id="s" x2="0" y2="1"><stop stop-color="#6e8da5"/><stop offset=".58" stop-color="#e5b28d"/><stop offset="1" stop-color="#263b3b"/></linearGradient><linearGradient id="b" x2="1" y2="1"><stop stop-color="#e9dfd0"/><stop offset="1" stop-color="#a99c8d"/></linearGradient><linearGradient id="g" x2="1" y2="1"><stop stop-color="#19343b"/><stop offset=".5" stop-color="#6f9298"/><stop offset="1" stop-color="#20353a"/></linearGradient></defs><rect width="1600" height="900" fill="url(#s)"/><circle cx="350" cy="220" r="115" fill="#f8d9b1" opacity=".42"/><rect y="700" width="1600" height="200" fill="#172b2b"/><g transform="translate(260 145)"><path d="M0 555 120 70h790l120 485Z" fill="url(#b)"/><path d="M150 115h730v440H150Z" fill="url(#g)"/><g fill="#e6bd7d"><path d="M185 145h120v70H185zM330 145h120v70H330zM475 145h120v70H475zM620 145h120v70H620zM765 145h80v70h-80z"/><path d="M185 245h120v70H185zM330 245h120v70H330zM475 245h120v70H475zM620 245h120v70H620zM765 245h80v70h-80z"/><path d="M185 345h120v70H185zM330 345h120v70H330zM475 345h120v70H475zM620 345h120v70H620zM765 345h80v70h-80z"/><path d="M185 445h120v70H185zM330 445h120v70H330zM475 445h120v70H475zM620 445h120v70H620zM765 445h80v70h-80z"/></g><g fill="#d1c4b4"><rect x="115" width="42" height="555"/><rect x="855" width="42" height="555"/><rect x="448" width="34" height="555"/></g><rect x="390" y="470" width="250" height="85" fill="#13292c"/><rect x="420" y="495" width="190" height="60" fill="#d8ad70" opacity=".9"/></g><g fill="#26413a"><path d="M90 900V630h20v270Z"/><path d="M100 710c-85-95-75-150 0-190 8 65 8 120 0 190Z"/><path d="M108 740c95-100 125-110 155-45-50 18-95 30-155 45Z"/><path d="M1480 900V625h20v275Z"/><path d="M1490 710c-80-90-70-145 0-185 8 65 8 115 0 185Z"/><path d="M1498 742c90-95 120-105 150-45-45 20-90 32-150 45Z"/></g><rect width="1600" height="900" fill="#0e1d1c" opacity=".1"/></svg>