<svg xmlns="http://www.w3.org/2000/svg" viewBox="0 0 1600 900" role="img" aria-labelledby="t d"><title id="t">Dangat Corner architectural reference</title><desc id="d">Premium architectural reference illustration of a corner residential development with landscaped frontage.</desc><defs><linearGradient id="sky" x2="0" y2="1"><stop stop-color="#9cb3c1"/><stop offset=".6" stop-color="#e3b996"/><stop offset="1" stop-color="#344846"/></linearGradient><linearGradient id="fac" x2="1" y2="1"><stop stop-color="#f2e8da"/><stop offset="1" stop-color="#b3a491"/></linearGradient><linearGradient id="glass" x2="1" y2="1"><stop stop-color="#234149"/><stop offset=".45" stop-color="#78949a"/><stop offset="1" stop-color="#183037"/></linearGradient></defs><rect width="1600" height="900" fill="url(#sky)"/><circle cx="1180" cy="190" r="105" fill="#f5d7ac" opacity=".5"/><rect y="690" width="1600" height="210" fill="#1b302e"/><g transform="translate(310 125)"><path d="M0 575V170l110-65h760l110 65v405Z" fill="url(#fac)"/><path d="M90 180h820v395H90Z" fill="url(#glass)"/><g fill="#e3b87b"><path d="M125 210h135v65H125zM280 210h135v65H280zM435 210h135v65H435zM590 210h135v65H590zM745 210h135v65H745z"/><path d="M125 305h135v65H125zM280 305h135v65H280zM435 305h135v65H435zM590 305h135v65H590zM745 305h135v65H745z"/><path d="M125 400h135v65H125zM280 400h135v65H280zM435 400h135v65H435zM590 400h135v65H590zM745 400h135v65H745z"/><path d="M125 495h135v55H125zM280 495h135v55H280zM435 495h135v55H435zM590 495h135v55H590zM745 495h135v55H745z"/></g><g fill="#d0c2b1"><rect x="70" y="0" width="38" height="575"/><rect x="905" y="0" width="38" height="575"/><rect x="505" y="0" width="32" height="575"/></g><rect x="380" y="480" width="260" height="95" fill="#132b2e"/><rect x="410" y="505" width="200" height="70" fill="#d8b074"/></g><g fill="#315047"><path d="M80 900V635h22v265Z"/><path d="M91 715c-95-100-85-155 0-205 10 75 10 130 0 205Z"/><path d="M100 750c100-105 135-115 165-50-55 20-105 35-165 50Z"/><path d="M1510 900V620h22v280Z"/><path d="M1521 700c-90-100-80-155 0-205 10 75 10 130 0 205Z"/><path d="M1530 740c95-100 130-110 160-45-50 20-100 32-160 45Z"/></g><rect width="1600" height="900" fill="#10201f" opacity=".1"/></svg>